<svg width="80" height="80" fill="none" xmlns="http://www.w3.org/2000/svg"><g filter="url(#filter0_d)"><circle cx="40" cy="40" r="30" fill="url(#paint0_linear)"/><circle cx="40" cy="40" r="29.25" stroke="url(#paint1_linear)" stroke-width="1.5"/></g><g filter="url(#filter1_dd)"><mask id="a" fill="#fff"><path fill-rule="evenodd" clip-rule="evenodd" d="M47.83 44.718C50.97 42.715 53 39.54 53 35.964 53 29.91 47.18 25 40 25s-13 4.909-13 10.964c0 6.055 5.82 10.964 13 10.964.706 0 1.4-.047 2.075-.139 1.775 1.945 3.537 2.38 7.329 2.159.14-.008.195-.193.084-.281-1.595-1.27-2.337-3.033-1.659-3.95z"/></mask><path fill-rule="evenodd" clip-rule="evenodd" d="M47.83 44.718C50.97 42.715 53 39.54 53 35.964 53 29.91 47.18 25 40 25s-13 4.909-13 10.964c0 6.055 5.82 10.964 13 10.964.706 0 1.4-.047 2.075-.139 1.775 1.945 3.537 2.38 7.329 2.159.14-.008.195-.193.084-.281-1.595-1.27-2.337-3.033-1.659-3.95z" fill="#fff"/><path d="M47.83 44.718l-.27-.422-.077.05-.055.074.401.297zm-5.755 2.071l.37-.337-.177-.193-.26.035.067.495zm7.329 2.159l.029.5-.03-.5zm.084-.281l-.311.39.31-.39zM52.5 35.964c0 3.375-1.915 6.405-4.94 8.332l.538.843c3.258-2.076 5.402-5.398 5.402-9.175h-1zM40 25.5c6.987 0 12.5 4.761 12.5 10.464h1C53.5 29.556 47.373 24.5 40 24.5v1zM27.5 35.964C27.5 30.261 33.013 25.5 40 25.5v-1c-7.373 0-13.5 5.056-13.5 11.464h1zM40 46.428c-6.987 0-12.5-4.761-12.5-10.464h-1c0 6.408 6.127 11.464 13.5 11.464v-1zm2.008-.134c-.654.088-1.324.134-2.008.134v1c.729 0 1.444-.049 2.142-.143l-.134-.991zm7.367 2.155c-1.883.11-3.202.05-4.255-.25-1.03-.293-1.838-.83-2.676-1.747l-.738.674c.937 1.027 1.898 1.681 3.14 2.035 1.22.348 2.678.397 4.587.286l-.058-.998zm-.198.609a.342.342 0 01-.116-.363.35.35 0 01.314-.246l.058.998c.635-.037.808-.82.366-1.172l-.622.783zm-1.75-4.638c-.491.664-.412 1.547-.082 2.334.338.804.98 1.627 1.832 2.304l.622-.783c-.743-.591-1.27-1.285-1.532-1.909-.27-.642-.222-1.1-.036-1.351l-.803-.595z" fill="url(#paint2_linear)" mask="url(#a)"/></g><g filter="url(#filter2_d)"><circle cx="46" cy="53" r="2" fill="url(#paint3_linear)"/><circle cx="46" cy="53" r="1.9" stroke="url(#paint4_linear)" stroke-width=".2"/></g><g filter="url(#filter3_d)"><circle cx="40" cy="53" r="2" fill="url(#paint5_linear)"/><circle cx="40" cy="53" r="1.9" stroke="url(#paint6_linear)" stroke-width=".2"/></g><g filter="url(#filter4_d)"><circle cx="34" cy="53" r="2" fill="url(#paint7_linear)"/><circle cx="34" cy="53" r="1.9" stroke="url(#paint8_linear)" stroke-width=".2"/></g><defs><linearGradient id="paint0_linear" x1="23.125" y1="15.625" x2="58" y2="63.25" gradientUnits="userSpaceOnUse"><stop stop-color="#7BA0FC"/><stop offset="1" stop-color="#5080F9"/></linearGradient><linearGradient id="paint1_linear" x1="21.5" y1="15.5" x2="60" y2="62.5" gradientUnits="userSpaceOnUse"><stop stop-color="#8AACFF"/><stop offset="1" stop-color="#4575EF"/></linearGradient><linearGradient id="paint2_linear" x1="31.99" y1="27.529" x2="49.122" y2="46.798" gradientUnits="userSpaceOnUse"><stop stop-color="#fff"/><stop offset="1" stop-color="#F3F3F3"/></linearGradient><linearGradient id="paint3_linear" x1="44.5" y1="51.5" x2="47" y2="54.5" gradientUnits="userSpaceOnUse"><stop stop-color="#fff"/><stop offset="1" stop-color="#FCFCFC"/></linearGradient><linearGradient id="paint4_linear" x1="44.5" y1="51.5" x2="47" y2="55" gradientUnits="userSpaceOnUse"><stop stop-color="#FCFCFC"/><stop offset="1" stop-color="#F3F3F3"/></linearGradient><linearGradient id="paint5_linear" x1="38.5" y1="51.5" x2="41" y2="54.5" gradientUnits="userSpaceOnUse"><stop stop-color="#fff"/><stop offset="1" stop-color="#FCFCFC"/></linearGradient><linearGradient id="paint6_linear" x1="38.5" y1="51.5" x2="41" y2="55" gradientUnits="userSpaceOnUse"><stop stop-color="#FCFCFC"/><stop offset="1" stop-color="#F3F3F3"/></linearGradient><linearGradient id="paint7_linear" x1="32.5" y1="51.5" x2="35" y2="54.5" gradientUnits="userSpaceOnUse"><stop stop-color="#fff"/><stop offset="1" stop-color="#FCFCFC"/></linearGradient><linearGradient id="paint8_linear" x1="32.5" y1="51.5" x2="35" y2="55" gradientUnits="userSpaceOnUse"><stop stop-color="#FCFCFC"/><stop offset="1" stop-color="#F3F3F3"/></linearGradient><filter id="filter0_d" x="0" y="0" width="80" height="80" filterUnits="userSpaceOnUse" color-interpolation-filters="sRGB"><feFlood flood-opacity="0" result="BackgroundImageFix"/><feColorMatrix in="SourceAlpha" values="0 0 0 0 0 0 0 0 0 0 0 0 0 0 0 0 0 0 127 0"/><feOffset/><feGaussianBlur stdDeviation="5"/><feColorMatrix values="0 0 0 0 0.121875 0 0 0 0 0.300277 0 0 0 0 0.75 0 0 0 0.3 0"/><feBlend in2="BackgroundImageFix" result="effect1_dropShadow"/><feBlend in="SourceGraphic" in2="effect1_dropShadow" result="shape"/></filter><filter id="filter1_dd" x="21" y="21" width="38" height="36" filterUnits="userSpaceOnUse" color-interpolation-filters="sRGB"><feFlood flood-opacity="0" result="BackgroundImageFix"/><feColorMatrix in="SourceAlpha" values="0 0 0 0 0 0 0 0 0 0 0 0 0 0 0 0 0 0 127 0"/><feOffset dx="-3" dy="-.75"/><feGaussianBlur stdDeviation="1.5"/><feColorMatrix values="0 0 0 0 0.807843 0 0 0 0 0.827451 0 0 0 0 0.886275 0 0 0 0.2 0"/><feBlend in2="BackgroundImageFix" result="effect1_dropShadow"/><feColorMatrix in="SourceAlpha" values="0 0 0 0 0 0 0 0 0 0 0 0 0 0 0 0 0 0 127 0"/><feOffset dy="2"/><feGaussianBlur stdDeviation="3"/><feColorMatrix values="0 0 0 0 0.133333 0 0 0 0 0.270588 0 0 0 0 0.611765 0 0 0 0.5 0"/><feBlend in2="effect1_dropShadow" result="effect2_dropShadow"/><feBlend in="SourceGraphic" in2="effect2_dropShadow" result="shape"/></filter><filter id="filter2_d" x="40" y="48" width="12" height="12" filterUnits="userSpaceOnUse" color-interpolation-filters="sRGB"><feFlood flood-opacity="0" result="BackgroundImageFix"/><feColorMatrix in="SourceAlpha" values="0 0 0 0 0 0 0 0 0 0 0 0 0 0 0 0 0 0 127 0"/><feOffset dy="1"/><feGaussianBlur stdDeviation="2"/><feColorMatrix values="0 0 0 0 0.132708 0 0 0 0 0.270688 0 0 0 0 0.6125 0 0 0 0.5 0"/><feBlend in2="BackgroundImageFix" result="effect1_dropShadow"/><feBlend in="SourceGraphic" in2="effect1_dropShadow" result="shape"/></filter><filter id="filter3_d" x="34" y="48" width="12" height="12" filterUnits="userSpaceOnUse" color-interpolation-filters="sRGB"><feFlood flood-opacity="0" result="BackgroundImageFix"/><feColorMatrix in="SourceAlpha" values="0 0 0 0 0 0 0 0 0 0 0 0 0 0 0 0 0 0 127 0"/><feOffset dy="1"/><feGaussianBlur stdDeviation="2"/><feColorMatrix values="0 0 0 0 0.132708 0 0 0 0 0.270688 0 0 0 0 0.6125 0 0 0 0.5 0"/><feBlend in2="BackgroundImageFix" result="effect1_dropShadow"/><feBlend in="SourceGraphic" in2="effect1_dropShadow" result="shape"/></filter><filter id="filter4_d" x="28" y="48" width="12" height="12" filterUnits="userSpaceOnUse" color-interpolation-filters="sRGB"><feFlood flood-opacity="0" result="BackgroundImageFix"/><feColorMatrix in="SourceAlpha" values="0 0 0 0 0 0 0 0 0 0 0 0 0 0 0 0 0 0 127 0"/><feOffset dy="1"/><feGaussianBlur stdDeviation="2"/><feColorMatrix values="0 0 0 0 0.132708 0 0 0 0 0.270688 0 0 0 0 0.6125 0 0 0 0.5 0"/><feBlend in2="BackgroundImageFix" result="effect1_dropShadow"/><feBlend in="SourceGraphic" in2="effect1_dropShadow" result="shape"/></filter></defs></svg>