<svg width="80" height="80" fill="none" xmlns="http://www.w3.org/2000/svg"><g filter="url(#filter0_d)"><circle cx="40" cy="40" r="30" fill="url(#paint0_linear)"/><circle cx="40" cy="40" r="29.25" stroke="url(#paint1_linear)" stroke-width="1.5"/></g><g filter="url(#filter1_d)"><path d="M31.426 31.426a1.455 1.455 0 000 2.058L37.942 40l-6.516 6.516a1.455 1.455 0 002.058 2.058L40 42.058l6.516 6.516a1.455 1.455 0 102.058-2.058L42.058 40l6.516-6.516a1.455 1.455 0 10-2.058-2.058L40 37.942l-6.516-6.516a1.455 1.455 0 00-2.058 0z" fill="#fff"/></g><defs><linearGradient id="paint0_linear" x1="23.125" y1="15.625" x2="58" y2="63.25" gradientUnits="userSpaceOnUse"><stop stop-color="#6C94FB"/><stop offset="1" stop-color="#4576F1"/></linearGradient><linearGradient id="paint1_linear" x1="21.5" y1="15.5" x2="60" y2="62.5" gradientUnits="userSpaceOnUse"><stop stop-color="#749DFF"/><stop offset="1" stop-color="#386BEA"/></linearGradient><filter id="filter0_d" x="0" y="0" width="80" height="80" filterUnits="userSpaceOnUse" color-interpolation-filters="sRGB"><feFlood flood-opacity="0" result="BackgroundImageFix"/><feColorMatrix in="SourceAlpha" values="0 0 0 0 0 0 0 0 0 0 0 0 0 0 0 0 0 0 127 0"/><feOffset/><feGaussianBlur stdDeviation="5"/><feColorMatrix values="0 0 0 0 0.121875 0 0 0 0 0.300277 0 0 0 0 0.75 0 0 0 0.3 0"/><feBlend in2="BackgroundImageFix" result="effect1_dropShadow"/><feBlend in="SourceGraphic" in2="effect1_dropShadow" result="shape"/></filter><filter id="filter1_d" x="25" y="27" width="30" height="30" filterUnits="userSpaceOnUse" color-interpolation-filters="sRGB"><feFlood flood-opacity="0" result="BackgroundImageFix"/><feColorMatrix in="SourceAlpha" values="0 0 0 0 0 0 0 0 0 0 0 0 0 0 0 0 0 0 127 0"/><feOffset dy="2"/><feGaussianBlur stdDeviation="3"/><feColorMatrix values="0 0 0 0 0.132708 0 0 0 0 0.270688 0 0 0 0 0.6125 0 0 0 0.5 0"/><feBlend in2="BackgroundImageFix" result="effect1_dropShadow"/><feBlend in="SourceGraphic" in2="effect1_dropShadow" result="shape"/></filter></defs></svg>