<svg width="50" height="50" fill="none" xmlns="http://www.w3.org/2000/svg"><rect width="50" height="50" rx="25" fill="#827DDC"/><path d="M36.072 16.656s-2.15-2.32-7.03-2.656v.732s2.677-.158 5.99 3.167c-2.5-1.834-6.069-2.984-10.032-2.984s-7.531 1.15-10.032 2.984c3.313-3.325 5.99-3.167 5.99-3.167V14c-4.88.336-7.03 2.656-7.03 2.656C10.21 21.539 10 32.223 10 32.223c3.503 4.303 7.904 3.754 7.904 3.754l1.617-2.38c-2.085-.575-3.574-1.896-4.469-2.924 2.497 1.8 6.029 2.924 9.948 2.924 3.919 0 7.451-1.125 9.948-2.924-.895 1.028-2.384 2.349-4.469 2.924l1.617 2.38s4.401.55 7.904-3.754c0 0-.21-10.684-3.928-15.567zM20.329 29.2c-1.405 0-2.544-1.234-2.544-2.757 0-1.522 1.139-2.757 2.544-2.757 1.406 0 2.545 1.235 2.545 2.757 0 1.523-1.139 2.757-2.544 2.757zm9.342 0c-1.406 0-2.545-1.234-2.545-2.757 0-1.522 1.14-2.757 2.545-2.757s2.545 1.235 2.545 2.757c0 1.523-1.14 2.757-2.545 2.757z" fill="#fff"/></svg>