<svg width="50" height="50" fill="none" xmlns="http://www.w3.org/2000/svg"><rect width="50" height="50" rx="25" fill="url(#paint0_radial)"/><path d="M25 10c-8.449 0-15 6.191-15 14.55 0 4.372 1.793 8.152 4.71 10.762.244.218.394.526.401.855l.083 2.67a1.199 1.199 0 001.684 1.062l2.977-1.313c.251-.112.536-.131.802-.06 1.37.375 2.824.578 4.343.578 8.449 0 15-6.191 15-14.55C40 16.195 33.449 10 25 10z" fill="#fff"/><path d="M15.993 28.806l4.406-6.99a2.251 2.251 0 013.255-.6l3.506 2.63a.9.9 0 001.084-.005l4.732-3.592c.63-.48 1.455.277 1.035.949l-4.41 6.986a2.251 2.251 0 01-3.255.6l-3.506-2.629a.9.9 0 00-1.084.004l-4.732 3.592c-.63.48-1.455-.273-1.031-.945z" fill="url(#paint1_radial)"/><defs><radialGradient id="paint0_radial" cx="0" cy="0" r="1" gradientUnits="userSpaceOnUse" gradientTransform="matrix(54.48 0 0 54.4751 9.625 49.723)"><stop stop-color="#09F"/><stop offset=".61" stop-color="#A033FF"/><stop offset=".935" stop-color="#FF5280"/><stop offset="1" stop-color="#FF7061"/></radialGradient><radialGradient id="paint1_radial" cx="0" cy="0" r="1" gradientUnits="userSpaceOnUse" gradientTransform="matrix(19.8845 0 0 10.683 19.39 29.849)"><stop stop-color="#09F"/><stop offset=".61" stop-color="#A033FF"/><stop offset=".935" stop-color="#FF5280"/><stop offset="1" stop-color="#FF7061"/></radialGradient></defs></svg>