<svg width="50" height="50" fill="none" xmlns="http://www.w3.org/2000/svg"><path d="M25 50c13.807 0 25-11.193 25-25S38.807 0 25 0 0 11.193 0 25s11.193 25 25 25z" fill="#3472C9"/><path d="M25 10c-8.27 0-15 6.729-15 15 0 2.554.663 5.08 1.917 7.318a.64.64 0 00.07.145c.467.71-.992 2.12-1.729 2.655a.626.626 0 00.098 1.071c.1.048 2.378 1.108 4.817.123A14.94 14.94 0 0025 40c8.27 0 15-6.728 15-15 0-8.271-6.73-15-15-15z" fill="#fff"/><path d="M27.381 37.278c-4.125.767-7.955-.51-10.704-2.97-1.958.943-3.936.34-3.936.34l.026-.026c1.221-1.225 1.462-3.072.77-4.657-.984-2.254-1.328-4.849-.77-7.57 1.025-4.988 5.138-8.923 10.165-9.729a12.515 12.515 0 0114.392 14.465c-.84 5.082-4.878 9.206-9.942 10.147z" fill="#3472C9"/><path d="M16.875 22.5a.625.625 0 00-.625.625v5a.625.625 0 101.25 0v-5a.625.625 0 00-.625-.625zM31.25 22.5a2.503 2.503 0 00-2.5 2.5v1.25c0 1.378 1.121 2.5 2.5 2.5s2.5-1.122 2.5-2.5V25c0-1.378-1.121-2.5-2.5-2.5zm1.25 3.75a1.251 1.251 0 01-2.5 0V25a1.251 1.251 0 012.5 0v1.25zM25 22.5c-.75 0-1.416.34-1.875.864a2.477 2.477 0 00-3.18-.495.626.626 0 00-1.195.256v5a.625.625 0 101.25 0V25a1.251 1.251 0 012.5 0v3.125a.625.625 0 101.25 0V25a1.251 1.251 0 012.5 0v3.125a.625.625 0 101.25 0V25c0-1.378-1.121-2.5-2.5-2.5zM16.875 21.25a.625.625 0 100-1.25.625.625 0 000 1.25z" fill="#fff"/></svg>