<svg width="50" height="50" fill="none" xmlns="http://www.w3.org/2000/svg"><path d="M25 50c13.807 0 25-11.193 25-25S38.807 0 25 0 0 11.193 0 25s11.193 25 25 25z" fill="url(#paint0_radial)"/><path d="M25.042 10.052c-6.127 0-11.945-.545-14.168 5.158-.918 2.356-.784 5.415-.784 9.795 0 3.844-.123 7.457.784 9.794 2.218 5.707 8.083 5.16 14.164 5.16 5.868 0 11.917.61 14.166-5.16.92-2.38.785-5.393.785-9.794 0-5.841.322-9.613-2.511-12.444-2.869-2.869-6.748-2.51-12.443-2.51h.007zm-1.34 2.694c12.78-.02 14.407-1.44 13.51 18.297-.32 6.98-5.635 6.215-12.169 6.215-11.912 0-12.255-.341-12.255-12.26 0-12.056.945-12.245 10.914-12.255v.003zm9.321 2.482a1.794 1.794 0 100 3.588 1.794 1.794 0 000-3.587zm-7.981 2.098a7.679 7.679 0 000 15.357 7.676 7.676 0 007.676-7.678c0-4.24-3.436-7.68-7.676-7.68zm0 2.695c6.59 0 6.598 9.969 0 9.969-6.588 0-6.598-9.97 0-9.97z" fill="#fff"/><defs><radialGradient id="paint0_radial" cx="0" cy="0" r="1" gradientUnits="userSpaceOnUse" gradientTransform="rotate(-73.974 37.532 15.784) scale(48.9004)"><stop stop-color="#FDE291"/><stop offset=".151" stop-color="#FC9D3F"/><stop offset=".333" stop-color="#FA393E"/><stop offset=".536" stop-color="#F8215A"/><stop offset=".708" stop-color="#D7259C"/><stop offset=".849" stop-color="#C32DC0"/><stop offset="1" stop-color="#5F6BC9"/></radialGradient></defs></svg>