<svg width="50" height="50" fill="none" xmlns="http://www.w3.org/2000/svg"><rect width="50" height="50" rx="25" fill="#61CB2B"/><path d="M24.353 30.437a1.561 1.561 0 01-1.547 1.554 1.547 1.547 0 01-1.556-1.535h-.019v-7.785h.019v-.038c0-.86.694-1.563 1.547-1.563a1.56 1.56 0 011.547 1.572v.057h.018v7.766h-.018l.01-.028zm13.922-6.1A1.73 1.73 0 0140 26.057c0 .945-.788 1.712-1.725 1.712-.956 0-1.744-.767-1.744-1.721 0-.955.769-1.722 1.725-1.722l.019.01zm-2.606 5.22c.15.244.244.543.244.852a1.555 1.555 0 01-2.907.786l-2.569-3.425-.787.73v2.04h-.019A1.54 1.54 0 0128.103 32a1.537 1.537 0 01-1.528-1.544v-.028h-.019v-11.79h.038v-.057c0-.86.684-1.562 1.537-1.562.844 0 1.528.702 1.528 1.562v.085h.02l.009 5.736 2.887-2.817a1.567 1.567 0 012.719 1.067c0 .43-.169.805-.432 1.085l.02.02-2.026 2.002 2.85 3.817-.019.02-.018-.038zm-16.556 0c.15.244.243.543.243.852a1.555 1.555 0 01-2.906.786l-2.569-3.425-.787.73v2.03h-.019a1.54 1.54 0 01-1.528 1.46 1.537 1.537 0 01-1.528-1.543v-.038H10V18.62h.037c-.009-.019-.009-.038-.009-.056 0-.861.684-1.563 1.538-1.563.843 0 1.528.702 1.528 1.563v.084h.019l.009 5.736 2.887-2.817a1.567 1.567 0 012.719 1.067c0 .412-.16.805-.431 1.086l.019.018-2.035 2.003 2.84 3.818-.018.018.01-.018z" fill="#fff"/></svg>