<svg width="50" height="50" fill="none" xmlns="http://www.w3.org/2000/svg"><rect width="50" height="50" rx="25" fill="#4CAF50"/><path d="M25 11c8.29 0 15 5.362 15 11.975 0 2.313-.818 4.469-2.24 6.3-.068.101-.157.224-.28.347l-.012.011c-.481.581-1.03 1.117-1.635 1.62-4.145 3.82-10.979 8.378-11.875 7.675-.784-.615 1.289-3.598-1.098-4.09a55.153 55.153 0 01-.493-.066C15.343 33.778 10 28.874 10 22.975 10 16.362 16.721 11 25 11z" fill="#fff"/><path d="M15.803 27h3.098c.436 0 .803-.377.803-.851v-.073c0-.462-.355-.851-.803-.851h-2.226V19.85c0-.462-.355-.851-.803-.851h-.069c-.436 0-.803.377-.803.851v6.298c0 .474.356.851.803.851zM35 23.049v-.073c0-.462-.356-.851-.803-.851H31.97v-1.35h2.226c.436 0 .803-.377.803-.851v-.073c0-.462-.356-.851-.803-.851H31.11c-.436 0-.803.377-.803.851v6.298c0 .462.356.851.803.851H34.197c.436 0 .803-.377.803-.851V26.1c0-.462-.356-.85-.803-.85H31.97V23.9h2.226c.447 0 .803-.377.803-.851zm-5.955 3.696a.907.907 0 00.23-.596V19.85c0-.462-.356-.851-.804-.851h-.069c-.436 0-.803.377-.803.851v3.696l-2.892-4.122a.798.798 0 00-.7-.425h-.068c-.436 0-.804.377-.804.851v6.298c0 .462.356.851.804.851h.069c.436 0 .803-.377.803-.851v-3.77l2.914 4.22c.023.024.035.06.058.085.08.121.195.194.31.243a.82.82 0 00.298.06h.069a.8.8 0 00.378-.096.467.467 0 00.207-.146zM21.15 27h.07c.435 0 .802-.377.802-.851V19.85c0-.462-.355-.851-.803-.851h-.069c-.436 0-.803.377-.803.851v6.298c0 .474.356.851.803.851z" fill="#4CAF50"/></svg>