<svg width="50" height="50" fill="none" xmlns="http://www.w3.org/2000/svg"><rect width="50" height="50" rx="25" fill="#fff"/><path d="M19.24 37.926s-4.697 1.204-3.689 2.357c.767.881 9.181.386 9.181-.19 0-.577-1.614-2.629-5.492-2.167zM30.766 37.926s4.697 1.204 3.689 2.357c-.767.881-9.181.386-9.181-.19 0-.577 1.613-2.629 5.492-2.167z" fill="#FFAE30"/><path d="M25.003 40.462c9.838 0 10-8.501 10-8.501a9.377 9.377 0 002.489 2.881.224.224 0 00.303-.02.225.225 0 00.054-.095c.986-3.089-3.181-11.907-3.181-11.907 0-13.808-9.665-13.002-9.665-13.002s-9.665-.806-9.665 13.002c0 0-4.19 8.83-3.181 11.901a.224.224 0 00.357.116 9.375 9.375 0 002.49-2.882s1.394 8.507 9.999 8.507z" fill="#231F20"/><path d="M22.558 18.575c.89-.052 1.545-1.228 1.464-2.626-.082-1.398-.87-2.49-1.76-2.438-.889.052-1.544 1.228-1.462 2.626.081 1.398.869 2.49 1.758 2.438zM29.207 16.137c.082-1.398-.573-2.574-1.463-2.626-.89-.051-1.677 1.04-1.759 2.438-.081 1.398.574 2.574 1.463 2.626.89.051 1.677-1.04 1.76-2.438z" fill="#fff"/><path d="M25.003 22.417c2.305 0 4.818-1.262 5.619-1.7a.23.23 0 00.101-.291.23.23 0 00-.066-.09c-.473-.38-1.862-1.089-5.654-1.089s-5.187.709-5.654 1.09a.23.23 0 00.035.38c.8.46 3.314 1.7 5.619 1.7z" fill="#FFAE30"/><path d="M23.101 17.253c.328 0 .594-.439.594-.98 0-.54-.266-.98-.594-.98-.328 0-.593.44-.593.98 0 .541.265.98.593.98zM26.669 16.936a.346.346 0 01-.294-.524 1.814 1.814 0 011.152-.83 1.343 1.343 0 011.153.443.352.352 0 010 .49.346.346 0 01-.49 0 .692.692 0 00-.576-.253c-.277.08-.513.26-.663.507a.357.357 0 01-.282.167z" fill="#000"/><path d="M25.003 39.384c9.722 0 7.164-13.429 7.164-13.429H17.839s-2.559 13.429 7.164 13.429z" fill="#fff"/><path d="M19.02 31.776v-4.472a57.18 57.18 0 01-5.111-1.153c.749-1.913 1.429-3.348 1.429-3.348v-.116c1.602.577 4.61 1.291 9.66 1.291 5.048 0 8.068-.72 9.658-1.29v.115c0 .04.68 1.435 1.43 3.348-2.306.611-7.135 1.73-11.095 1.73-.576 0-1.152 0-1.729-.064v4.172s-3.215.225-4.241-.213z" fill="#F22128"/></svg>