<svg width="50" height="50" fill="none" xmlns="http://www.w3.org/2000/svg"><path d="M25 50c13.807 0 25-11.193 25-25S38.807 0 25 0 0 11.193 0 25s11.193 25 25 25z" fill="#3A76F0"/><path d="M21.398 10.437l.338 1.363c-1.328.326-2.6.853-3.77 1.557l-.72-1.2a14.987 14.987 0 014.152-1.72zm7.204 0l-.338 1.363c1.328.326 2.6.853 3.77 1.557l.725-1.205a15.137 15.137 0 00-4.157-1.715zm-16.446 6.808a14.987 14.987 0 00-1.72 4.153l1.364.338c.326-1.328.853-2.6 1.557-3.77l-1.2-.72zM11.404 25c0-.682.049-1.363.154-2.037l-1.39-.21a15.1 15.1 0 000 4.495l1.39-.212A13.707 13.707 0 0111.404 25zm21.35 12.844l-.72-1.206a13.439 13.439 0 01-3.766 1.558l.339 1.363c1.46-.36 2.859-.937 4.148-1.715zM38.597 25c0 .682-.049 1.363-.154 2.037l1.39.21a15.099 15.099 0 000-4.495l-1.39.212c.101.673.154 1.354.154 2.036zm.967 3.598l-1.363-.339a13.598 13.598 0 01-1.557 3.77l1.205.726a15.081 15.081 0 001.715-4.157zm-12.527 9.844c-1.35.202-2.722.202-4.073 0l-.21 1.39c1.49.224 3.003.224 4.495 0l-.212-1.39zm8.907-5.38a13.535 13.535 0 01-2.88 2.877l.835 1.13a15.075 15.075 0 003.18-3.166l-1.135-.84zm-2.88-19.005c1.1.809 2.071 1.78 2.88 2.88l1.13-.844a15.012 15.012 0 00-3.166-3.167l-.844 1.13zm-19.007 2.88c.81-1.1 1.782-2.071 2.882-2.88l-.845-1.13a15.012 15.012 0 00-3.167 3.166l1.13.845zm23.788.308l-1.206.722a13.439 13.439 0 011.558 3.765l1.363-.339a14.82 14.82 0 00-1.715-4.148zm-14.88-5.687a13.736 13.736 0 014.073 0l.21-1.39a15.1 15.1 0 00-4.495 0l.212 1.39zm-8.186 25.89l-2.903.677.677-2.903-1.368-.321-.677 2.903c-.11.475.03.972.374 1.315.343.343.84.484 1.315.374l2.903-.664-.321-1.381zm-3.303-3.805l1.367.317.471-2.015a13.653 13.653 0 01-1.513-3.69l-1.363.339a14.92 14.92 0 001.38 3.562l-.342 1.487zm6.562 3.048l-2.01.47.317 1.369 1.482-.343a14.843 14.843 0 003.567 1.38l.339-1.363a13.54 13.54 0 01-3.682-1.522l-.013.01zM25 12.811a12.194 12.194 0 00-10.662 6.295 12.188 12.188 0 00.352 12.377l-1.17 5.001 5.001-1.17a12.188 12.188 0 0018.003-14.34A12.21 12.21 0 0025 12.813z" fill="#fff"/></svg>