<svg width="50" height="50" fill="none" xmlns="http://www.w3.org/2000/svg"><rect width="50" height="50" rx="25" fill="#00AFF0"/><path d="M38.938 27.505c.155-.845.236-1.71.236-2.575 0-1.917-.374-3.776-1.114-5.527a14.142 14.142 0 00-3.036-4.514 14.112 14.112 0 00-10.015-4.159c-.902 0-1.805.085-2.683.255h-.007A8.38 8.38 0 0018.387 10a8.32 8.32 0 00-5.93 2.463A8.363 8.363 0 0010 18.407c0 1.43.367 2.834 1.055 4.076-.14.804-.213 1.626-.213 2.447 0 1.918.374 3.777 1.114 5.528a14.133 14.133 0 003.035 4.514 14.09 14.09 0 004.503 3.042 14.023 14.023 0 005.514 1.117c.833 0 1.667-.076 2.481-.22A8.364 8.364 0 0031.615 40c2.24 0 4.345-.873 5.929-2.462A8.358 8.358 0 0040 31.594a8.424 8.424 0 00-1.062-4.09z" fill="#fff"/><path d="M25.06 34C20.182 34 18 31.378 18 29.413c0-1.007.68-1.714 1.619-1.714 2.087 0 1.546 3.277 5.44 3.277 1.994 0 3.095-1.183 3.095-2.395 0-.728-.328-1.535-1.641-1.89l-4.338-1.183c-3.494-.958-4.128-3.023-4.128-4.964 0-4.03 3.47-5.544 6.73-5.544 3.003 0 6.542 1.814 6.542 4.232 0 1.036-.82 1.639-1.758 1.639-1.781 0-1.454-2.696-5.042-2.696-1.78 0-2.767.882-2.767 2.143 0 1.26 1.407 1.661 2.628 1.965l3.21.78c3.518.856 4.41 3.102 4.41 5.216C32 31.554 29.7 34 25.06 34z" fill="#00AFF0"/></svg>