<svg width="50" height="50" viewBox="0 0 50 50" fill="none" xmlns="http://www.w3.org/2000/svg">
<rect width="50" height="50" rx="25" fill="#FFFA04"/>
<path d="M25.1855 38.6917C25.1098 38.6917 25.0356 38.6895 24.9609 38.6858C24.9131 38.69 24.8637 38.6917 24.8142 38.6917C23.0738 38.6917 21.9569 37.9079 20.8765 37.1491C20.1306 36.6258 19.4265 36.1315 18.5974 35.9945C18.1929 35.9278 17.7896 35.8945 17.4011 35.8945C16.6992 35.8945 16.1465 36.0019 15.7422 36.0801C15.4971 36.1282 15.2852 36.1689 15.1243 36.1689C14.9559 36.1689 14.7742 36.133 14.6947 35.8642C14.626 35.6312 14.5766 35.4064 14.5283 35.1878C14.4049 34.627 14.3174 34.2819 14.0808 34.2459C11.3205 33.8226 10.5299 33.2447 10.354 32.8353C10.3295 32.7769 10.3145 32.7179 10.3118 32.6601C10.3028 32.5023 10.4147 32.3633 10.5719 32.3382C14.8149 31.6445 16.7177 27.3373 16.7971 27.1545C16.7989 27.1497 16.8014 27.1445 16.8036 27.1398C17.0635 26.617 17.1142 26.1632 16.9553 25.791C16.6645 25.1101 15.7145 24.8106 15.0855 24.6126C14.9321 24.5639 14.7862 24.5183 14.671 24.4729C13.4164 23.9803 13.3122 23.4754 13.3617 23.2176C13.4459 22.7784 14.0363 22.4724 14.5143 22.4724C14.645 22.4724 14.7602 22.4957 14.8574 22.5409C15.4221 22.8032 15.9301 22.9362 16.3696 22.9362C16.976 22.9362 17.2409 22.6833 17.2729 22.6498C17.2571 22.3647 17.2384 22.067 17.2187 21.7593C17.0925 19.7675 16.9353 17.2916 17.5705 15.8787C19.4727 11.6433 23.5064 11.314 24.6975 11.314C24.728 11.314 25.2197 11.3088 25.2197 11.3088H25.2902C26.4836 11.3088 30.5264 11.6384 32.4299 15.8765C33.0646 17.2899 32.9074 19.7677 32.781 21.758L32.7758 21.8451C32.758 22.1218 32.741 22.3913 32.7268 22.6493C32.7573 22.6801 33.0009 22.9128 33.5501 22.9339H33.5506C33.9689 22.9181 34.4486 22.7856 34.9756 22.5409C35.1298 22.4689 35.3017 22.4538 35.4179 22.4538C35.597 22.4538 35.7772 22.4883 35.9274 22.5503L35.9369 22.5543C36.3626 22.7047 36.642 23.0004 36.6482 23.3106C36.654 23.6027 36.4291 24.0414 35.3289 24.4731C35.2147 24.518 35.0688 24.5637 34.9141 24.6128C34.285 24.8108 33.3355 25.1103 33.0444 25.7915C32.8857 26.1634 32.9362 26.6168 33.1963 27.1396C33.1985 27.1448 33.201 27.1495 33.2033 27.1547C33.282 27.3376 35.1828 31.6437 39.4285 32.338C39.5849 32.3638 39.6971 32.5025 39.6884 32.6598C39.6849 32.7186 39.6704 32.7782 39.6449 32.836C39.4695 33.2424 38.6804 33.8196 35.9196 34.2432C35.6937 34.2774 35.606 34.5697 35.4714 35.1819C35.4224 35.4044 35.3732 35.6233 35.3049 35.8533C35.2462 36.0533 35.121 36.1466 34.9096 36.1466H34.8757C34.7292 36.1466 34.5216 36.1203 34.258 36.0689C33.7902 35.9784 33.2663 35.8948 32.5994 35.8948C32.2098 35.8948 31.807 35.928 31.402 35.9948C30.5737 36.132 29.8703 36.625 29.1257 37.1478C28.0432 37.9079 26.9263 38.6917 25.1855 38.6917Z" fill="white"/>
<path d="M25.29 11.6174C26.4199 11.6174 30.3118 11.9188 32.1459 16.0019C32.7501 17.346 32.5951 19.7817 32.471 21.7383C32.4507 22.0489 32.4322 22.3497 32.4167 22.6373L32.4097 22.7603L32.4934 22.8526C32.5264 22.8896 32.8403 23.2152 33.5384 23.2422L33.5501 23.2427L33.5614 23.2422C34.0229 23.2246 34.5429 23.0827 35.1083 22.8199C35.1908 22.7812 35.3017 22.7626 35.4189 22.7626C35.5523 22.7626 35.6943 22.7871 35.811 22.8363L35.8287 22.8432C36.1245 22.9459 36.3339 23.1405 36.3374 23.3162C36.3392 23.4162 36.264 23.7735 35.2148 24.1851C35.1118 24.2256 34.9766 24.2683 34.82 24.3171C34.1368 24.5325 33.1054 24.8573 32.7578 25.6692C32.5627 26.1275 32.6154 26.668 32.9172 27.2754C33.0414 27.562 34.9899 31.9235 39.3776 32.6416C39.3766 32.6619 39.3711 32.6847 39.3593 32.7113C39.2854 32.8855 38.8124 33.486 35.8714 33.9363C35.4109 34.007 35.2985 34.5194 35.1675 35.115C35.1211 35.3276 35.0721 35.5425 35.0064 35.7651C34.9864 35.8323 34.9829 35.8365 34.9099 35.8365H34.8752C34.7453 35.8365 34.5466 35.8095 34.317 35.7651C33.9 35.6839 33.329 35.5847 32.5989 35.5847C32.1919 35.5847 31.7721 35.6202 31.351 35.6894C30.451 35.838 29.7189 36.3524 28.9436 36.8958C27.9031 37.6273 26.8267 38.3824 25.1853 38.3824C25.1141 38.3824 25.0441 38.3802 24.9736 38.3764L24.9554 38.3769L24.9367 38.3779C24.8967 38.3817 24.8559 38.3831 24.8142 38.3831C23.1726 38.3831 22.0961 37.6281 21.0559 36.8973C20.2806 36.3529 19.5485 35.839 18.649 35.6899C18.2279 35.6209 17.8081 35.5852 17.4011 35.5852C16.671 35.5852 16.0998 35.6956 15.6825 35.7767C15.4531 35.8216 15.255 35.8599 15.1245 35.8599C15.0184 35.8599 15.0164 35.8539 14.9939 35.7772C14.9279 35.5547 14.8792 35.3341 14.833 35.1212C14.7018 34.5254 14.5883 34.0105 14.1288 33.9395C11.1874 33.4887 10.7154 32.8872 10.6404 32.7135C10.6287 32.6867 10.6239 32.6629 10.6227 32.6423C15.0099 31.9242 16.9591 27.5635 17.083 27.2756C17.3841 26.6682 17.4378 26.1285 17.2419 25.67C16.8949 24.8576 15.8634 24.5328 15.1798 24.3174C15.0231 24.2683 14.8882 24.2258 14.7855 24.1856C13.8984 23.8372 13.6261 23.4876 13.6676 23.275C13.714 23.0303 14.1418 22.7812 14.5144 22.7812C14.5981 22.7812 14.6715 22.7941 14.7255 22.8199C15.3314 23.1013 15.8849 23.2444 16.3694 23.2444C17.1317 23.2444 17.4718 22.8921 17.5075 22.8517L17.5905 22.7601L17.5835 22.6375C17.5683 22.3502 17.549 22.0499 17.5293 21.7395C17.4051 19.7822 17.2507 17.3485 17.8544 16.0039C19.6812 11.9357 23.5539 11.6221 24.6973 11.6221C24.7255 11.6221 25.2228 11.6174 25.2228 11.6174H25.29ZM25.29 11H25.2155C25.2155 11 24.7348 11.0047 24.6965 11.0047C23.4592 11.0047 19.2646 11.3476 17.2862 15.753C16.6205 17.2351 16.7797 19.7527 16.9079 21.7755C16.9231 22.0137 16.9391 22.2613 16.9526 22.5008C16.8501 22.5569 16.6632 22.6268 16.3691 22.6268C15.9764 22.6268 15.5121 22.5043 14.9891 22.2606C14.8504 22.1966 14.6903 22.1638 14.5139 22.1638C13.9017 22.1638 13.1693 22.5638 13.0559 23.1596C12.9734 23.5889 13.1671 24.2152 14.5563 24.7601C14.6815 24.8097 14.8322 24.8568 14.9916 24.9065C15.5656 25.0876 16.4331 25.361 16.669 25.9119C16.7907 26.1975 16.742 26.5647 16.5243 27.0029C16.5196 27.0129 16.5148 27.023 16.5108 27.0332C16.4344 27.2094 14.5981 31.3666 10.521 32.0331C10.2076 32.0845 9.98324 32.3626 10.001 32.6773C10.0062 32.7713 10.0287 32.8641 10.0669 32.9547C10.3733 33.6649 11.6639 34.1859 14.0141 34.548C14.0931 34.6532 14.1748 35.0259 14.2248 35.2529C14.2737 35.4772 14.3242 35.708 14.3964 35.9519C14.4669 36.1916 14.651 36.4775 15.1238 36.4775C15.3152 36.4775 15.5411 36.4335 15.8014 36.3829C16.1932 36.3067 16.7297 36.203 17.4009 36.203C17.7732 36.203 18.159 36.235 18.547 36.2988C19.3051 36.4241 19.95 36.877 20.6956 37.4003C21.7643 38.1509 22.9747 39 24.814 39C24.8644 39 24.9152 38.999 24.9656 38.9948C25.0251 38.9978 25.1028 39 25.1853 39C27.0251 39 28.2354 38.1509 29.3031 37.401C30.0507 36.8765 30.6949 36.4241 31.4527 36.2988C31.841 36.235 32.2268 36.203 32.5989 36.203C33.2396 36.203 33.7458 36.2834 34.1976 36.3713C34.4812 36.4266 34.7088 36.4546 34.8752 36.4546H34.9099C35.2595 36.4546 35.5059 36.2713 35.6033 35.939C35.6745 35.7001 35.725 35.4753 35.775 35.2472C35.825 35.0207 35.9062 34.65 35.9844 34.5447C38.3356 34.183 39.6262 33.6631 39.932 32.9557C39.9708 32.8651 39.9938 32.7711 39.999 32.6765C40.0168 32.3609 39.7929 32.0842 39.479 32.0329C35.4002 31.3654 33.5649 27.2089 33.4892 27.0327C33.4849 27.0225 33.4802 27.0126 33.4752 27.0029C33.2578 26.5642 33.2093 26.1975 33.3313 25.9119C33.5666 25.361 34.4342 25.0878 35.0081 24.9072C35.1685 24.8563 35.3192 24.8082 35.4434 24.7601C36.4601 24.3611 36.9701 23.8715 36.9599 23.3042C36.9509 22.8586 36.6018 22.4613 36.0463 22.2646L36.0448 22.2641C35.8582 22.1869 35.6365 22.145 35.4197 22.145C35.271 22.145 35.0509 22.1648 34.8452 22.2606C34.3617 22.4857 33.9269 22.6082 33.5524 22.6246C33.3035 22.6134 33.1411 22.5512 33.0484 22.5003C33.0602 22.2953 33.0734 22.0839 33.0871 21.8631L33.0924 21.7772C33.2213 19.7534 33.3807 17.2339 32.7148 15.7508C30.7344 11.3429 26.5311 11 25.29 11Z" fill="#030303"/>
</svg>
