<svg width="50" height="50" fill="none" xmlns="http://www.w3.org/2000/svg"><path d="M25 50c13.807 0 25-11.193 25-25S38.807 0 25 0 0 11.193 0 25s11.193 25 25 25z" fill="#fff"/><path fill-rule="evenodd" clip-rule="evenodd" d="M25 50C11.193 50 0 38.807 0 25S11.193 0 25 0s25 11.193 25 25-11.193 25-25 25zm12.424-35.515c-1.898-4.526-21.703-.195-25.47-2.57-1.882 2.375-1.444 3.844-1.116 4.581.327.737 1.806 2.523 9.495 1.565-.41 7.207-2.695 19.43-1.229 21.566.887 1.291 7.053 1.169 7.708-.224.871-1.852-3.744-4.665-.223-21.454 3.274-.41 6.16-.938 9.271.782.819-.655 2.488-2.043 1.564-4.246z" fill="#FF4D28"/><path opacity=".1" fill-rule="evenodd" clip-rule="evenodd" d="M42.676 7.325c9.761 9.762 9.761 25.589 0 35.35-9.762 9.763-25.589 9.763-35.35 0" fill="#000"/></svg>