<svg width="50" height="50" fill="none" xmlns="http://www.w3.org/2000/svg"><path d="M25 50c13.807 0 25-11.193 25-25S38.807 0 25 0 0 11.193 0 25s11.193 25 25 25z" fill="#000"/><path d="M27.478 37.581a2.155 2.155 0 01-2.156 2.158 2.156 2.156 0 112.156-2.158zm-7.781 0a2.158 2.158 0 11-4.317.002 2.158 2.158 0 014.317-.002zm15.563 0a2.156 2.156 0 11-4.313.002 2.156 2.156 0 014.313-.002zm-15.493-6.135l-6.352 1.588 1.358-5.429c-1.344-1.771-2.129-3.9-2.129-6.189 0-6.16 5.677-11.155 12.678-11.155C32.323 10.261 38 15.255 38 21.416c0 6.16-5.677 11.156-12.678 11.156-1.909.006-3.8-.378-5.555-1.126zm1.959-10.956h-.142a.577.577 0 00-.577.578v5.068c0 .32.258.579.577.579h7.476c.319 0 .577-.258.577-.578v-5.07a.577.577 0 00-.577-.577h-.142v-1.437a3.596 3.596 0 00-7.191.002l-.001 1.435zm5.754 0h-4.316v-1.435a2.158 2.158 0 014.316 0v1.437-.002z" fill="#fff"/></svg>