<svg width="50" height="50" fill="none" xmlns="http://www.w3.org/2000/svg"><rect width="50" height="50" rx="25" fill="#1DA1F2"/><path d="M19.435 38c11.321 0 17.512-9.618 17.512-17.957 0-.273-.005-.545-.017-.816A12.705 12.705 0 0040 15.96c-1.103.503-2.29.841-3.535.994a6.308 6.308 0 002.707-3.49 12.165 12.165 0 01-3.908 1.53A6.078 6.078 0 0030.77 13c-3.4 0-6.156 2.826-6.156 6.31 0 .496.054.977.16 1.44-5.116-.265-9.652-2.776-12.687-6.595a6.418 6.418 0 00-.834 3.173 6.35 6.35 0 002.74 5.253 5.994 5.994 0 01-2.788-.79l-.001.081c0 3.057 2.121 5.609 4.938 6.187a6.029 6.029 0 01-2.78.108c.784 2.508 3.056 4.333 5.75 4.384A12.156 12.156 0 0110 35.165 17.112 17.112 0 0019.435 38" fill="#fff"/></svg>