<svg width="50" height="50" fill="none" xmlns="http://www.w3.org/2000/svg"><rect width="50" height="50" rx="25" fill="#835FF7"/><path d="M39.351 17.212l-.008-.034c-.7-2.83-3.854-5.868-6.75-6.5l-.033-.007a37.48 37.48 0 00-14.12 0l-.033.007c-2.896.632-6.05 3.67-6.75 6.5l-.008.034a27.683 27.683 0 000 11.916l.007.034c.671 2.71 3.59 5.608 6.379 6.405v3.16c0 1.144 1.392 1.705 2.184.88l3.199-3.328c.694.04 1.388.06 2.082.06 2.358 0 4.718-.222 7.06-.67l.032-.006c2.897-.632 6.051-3.67 6.75-6.5l.01-.035a27.684 27.684 0 000-11.916zM36.82 28.555c-.467 1.846-2.862 4.142-4.765 4.566a34.938 34.938 0 01-7.51.608.178.178 0 00-.133.053l-2.335 2.4-2.484 2.552a.29.29 0 01-.501-.201v-5.235a.18.18 0 00-.147-.177h-.001c-1.903-.424-4.297-2.72-4.765-4.567a25.119 25.119 0 010-10.768c.468-1.847 2.862-4.143 4.765-4.567a34.91 34.91 0 0113.111 0c1.904.424 4.298 2.72 4.765 4.567.78 3.573.78 7.195 0 10.768z" fill="#fff"/><path d="M29.64 30.97c-.293-.088-.572-.148-.831-.255-2.683-1.114-5.152-2.552-7.108-4.755-1.112-1.253-1.982-2.667-2.718-4.164-.35-.71-.643-1.447-.943-2.18-.273-.668.13-1.359.553-1.862.398-.473.91-.835 1.464-1.101.433-.208.86-.088 1.176.279.683.793 1.31 1.628 1.818 2.547.313.566.227 1.258-.34 1.643-.137.093-.262.203-.39.309a1.284 1.284 0 00-.296.311c-.14.23-.147.5-.057.75.698 1.92 1.875 3.414 3.807 4.219.309.128.62.278.976.237.596-.07.789-.725 1.207-1.067.408-.334.93-.338 1.37-.06.44.279.867.578 1.29.88.417.297.831.588 1.215.926.37.326.497.752.289 1.194-.38.809-.935 1.482-1.733 1.911-.226.121-.495.16-.75.239-.292-.09.255-.079 0 0zM25.507 15.728c3.51.099 6.392 2.43 7.01 5.902.104.591.142 1.196.189 1.797.02.252-.123.492-.396.496-.281.003-.408-.233-.426-.485-.036-.5-.061-1.002-.13-1.497-.363-2.617-2.448-4.781-5.05-5.246-.391-.07-.792-.088-1.189-.13-.25-.026-.579-.041-.634-.353-.047-.262.174-.47.422-.483.068-.004.136-.001.204 0 3.51.098-.068-.001 0 0z" fill="#fff"/><path d="M30.84 22.648c-.005.043-.008.146-.034.244-.093.352-.627.396-.75.04a1.063 1.063 0 01-.042-.339c-.002-.744-.163-1.487-.538-2.134a3.97 3.97 0 00-1.664-1.563 4.785 4.785 0 00-1.327-.408c-.2-.033-.402-.053-.603-.08-.243-.035-.373-.19-.362-.43a.378.378 0 01.42-.373c.806.046 1.584.22 2.3.6 1.456.77 2.287 1.989 2.53 3.616.01.073.029.146.034.22.014.183.023.366.037.607-.006.043-.014-.241 0 0z" fill="#fff"/><path d="M28.657 22.563c-.293.005-.45-.158-.48-.427-.021-.188-.038-.378-.083-.561-.088-.36-.28-.694-.582-.914a1.517 1.517 0 00-.474-.23c-.215-.062-.439-.044-.654-.097-.233-.057-.362-.247-.326-.466a.422.422 0 01.445-.339c1.36.099 2.333.802 2.472 2.405.01.114.021.233-.004.341-.043.186-.18.278-.314.288-.293.005.134-.01 0 0z" fill="#fff"/></svg>