<svg width="50" height="50" fill="none" xmlns="http://www.w3.org/2000/svg"><rect width="50" height="50" rx="25" fill="#4CAF50"/><path d="M35.555 22.507c-7.977-4.056-17.043 3.39-12.897 10.222 1.924 3.21 6.367 5.236 11.624 3.715 1.052.409 1.988 1.07 3.007 1.563a66.079 66.079 0 00-.844-2.637c5.432-3.87 4.243-10.255-.89-12.863zm-6.368 4.605c-.26.819-1.443 1.063-2.016.441-.632-.575-.386-1.778.443-2.035.916-.387 1.975.675 1.573 1.595zm5.97.118h.017c-.321.733-1.425.905-1.967.337-.261-.24-.337-.6-.43-.915.13-.575.525-1.17 1.162-1.198.88-.122 1.668.97 1.217 1.776z" fill="#fff"/><path d="M31.765 20.834c-.545-2.677-2.418-4.939-4.775-6.244h.033v-.001c-8.366-4.728-18.783 1.867-16.77 9.644.54 2.308 2.136 4.242 4.073 5.533a99.972 99.972 0 00-1.068 3.203c1.218-.64 2.436-1.307 3.654-1.957 1.461.471 3.016.7 4.57.65-1.92-5.51 3.006-11.346 10.283-10.828zm-7.589-3.198c.98-.395 2.14.43 2.062 1.486l.002.015c.01 1.205-1.592 1.957-2.49 1.14-.934-.672-.669-2.304.426-2.641zm-5.5 1.807c-.215 1.046-1.613 1.552-2.43.849-.948-.67-.682-2.333.43-2.671 1.09-.422 2.33.69 2 1.822z" fill="#fff"/></svg>