<svg width="50" height="50" fill="none" xmlns="http://www.w3.org/2000/svg"><rect width="50" height="50" rx="25" fill="#40C351"/><path d="M35.65 14.311C32.8 11.556 29.05 10 25.056 10 13.594 10 6.396 22.419 12.12 32.297L10 40l7.919-2.065c3.45 1.864 6.276 1.699 7.145 1.809 13.291 0 19.907-16.08 10.567-25.384l.019-.049z" fill="#ECEFF1"/><path d="M25.084 37.189l-.008-.002h-.02c-3.977 0-6.518-1.883-6.768-1.992L13.6 36.414l1.256-4.556-.298-.47a12.336 12.336 0 01-1.895-6.574c0-10.992 13.43-16.488 21.203-8.719 7.754 7.688 2.31 21.094-8.782 21.094z" fill="#40C353"/><path d="M31.884 27.884l-.012.093c-.376-.187-2.208-1.083-2.55-1.207-.766-.284-.55-.045-2.02 1.64-.22.244-.437.262-.808.094-.375-.188-1.58-.582-3.004-1.857-1.11-.993-1.855-2.212-2.075-2.587-.366-.633.4-.723 1.097-2.043.125-.262.062-.468-.03-.654-.095-.188-.84-2.026-1.153-2.758-.3-.73-.61-.637-.84-.637-.72-.063-1.247-.053-1.71.43-2.018 2.217-1.51 4.505.217 6.937 3.393 4.44 5.2 5.258 8.505 6.392.893.284 1.706.244 2.35.152.718-.114 2.209-.902 2.52-1.783.319-.881.319-1.612.225-1.781-.092-.169-.337-.263-.712-.431z" fill="#FAFAFA"/></svg>