<svg width="50" height="50" viewBox="0 0 50 50" fill="none" xmlns="http://www.w3.org/2000/svg">
<path d="M25 50C38.8071 50 50 38.8071 50 25C50 11.1929 38.8071 0 25 0C11.1929 0 0 11.1929 0 25C0 38.8071 11.1929 50 25 50Z" fill="black"/>
<path fill-rule="evenodd" clip-rule="evenodd" d="M40 28.6297C40.0024 29.8594 39.7652 31.0774 39.3017 32.2142C38.8383 33.3509 38.1578 34.384 37.2992 35.2544C36.4406 36.1247 35.4207 36.8152 34.298 37.2864C33.1753 37.7575 31.9717 38 30.7562 38C28.7094 37.9804 26.7284 37.2656 25.1312 35.9704C23.7556 37.0533 22.1087 37.7268 20.3756 37.9152C18.6425 38.1036 16.8918 37.7995 15.3201 37.037C13.7484 36.2745 12.418 35.0839 11.4782 33.5988C10.5384 32.1137 10.0265 30.3929 10 28.6297L10 13.8915H11.7625V28.6297C11.7616 30.0372 12.1477 31.4171 12.8777 32.6153C13.6076 33.8135 14.6526 34.7826 15.8958 35.4144C17.139 36.0462 18.5314 36.3157 19.9174 36.1928C21.3033 36.0699 22.6281 35.5595 23.7437 34.7185C22.2914 33.0291 21.4863 30.8686 21.475 28.6297V16.566C21.475 15.6202 21.8464 14.7132 22.5074 14.0445C23.1685 13.3757 24.0651 13 25 13C25.9349 13 26.8315 13.3757 27.4925 14.0445C28.1536 14.7132 28.525 15.6202 28.525 16.566V28.6297C28.5326 30.862 27.7475 33.0227 26.3125 34.7185C27.4282 35.5433 28.7474 36.0402 30.1245 36.1545C31.5017 36.2687 32.8833 35.9959 34.1169 35.366C35.3505 34.7362 36.3881 33.7738 37.1152 32.5851C37.8424 31.3964 38.2307 30.0276 38.2375 28.6297V13.8915H40V28.6297ZM26.7625 16.566C26.7625 16.0931 26.5768 15.6396 26.2463 15.3052C25.9157 14.9709 25.4674 14.783 25 14.783C24.5325 14.783 24.0842 14.9709 23.7537 15.3052C23.4232 15.6396 23.2375 16.0931 23.2375 16.566V28.6297C23.2402 30.4138 23.8642 32.1398 25 33.5046C26.1357 32.1398 26.7598 30.4138 26.7625 28.6297V16.566Z" fill="white"/>
</svg>
